# xmcd
# 
# Track frame offsets:
#     150
#     21868
#     43548
#     62270
#     86573
#     109543
#     132265
#     159018
#     182750
# 
# Disc length: 2956
# 
# Revision: 11
# Processed by: cddbd v1.5.2PL0 Copyright (c) Steve Scherf et al.
# Submitted via: fre:ac v1.1beta1pre5
# 
DISCID=610b8a09
DTITLE=Chris Spheeris - Culture
DYEAR=1993
DGENRE=New Age
TTITLE0=Aria
TTITLE1=Margarita
TTITLE2=Embrace
TTITLE3=Elektra
TTITLE4=Culture
TTITLE5=Sapphire
TTITLE6=Allura
TTITLE7=Bombay
TTITLE8=One
EXTD=Chris Spheeris 克利斯.斯菲里斯《Culture 文明》\n歌手姓名:Chris Spheeris \n专辑名称:文明 Culture\n唱片公司:essence\n发行日期:1993\nYEAR: 1993
EXTT0=
EXTT1=
EXTT2=
EXTT3=
EXTT4=
EXTT5=
EXTT6=
EXTT7=
EXTT8=
PLAYORDER=
